<?xml version="1.0" encoding="utf-8"?>
<!-- Generator: Adobe Illustrator 24.1.0, SVG Export Plug-In . SVG Version: 6.00 Build 0)  -->
<svg version="1.1" id="Calque_2" xmlns="http://www.w3.org/2000/svg" xmlns:xlink="http://www.w3.org/1999/xlink" x="0px" y="0px"
	 viewBox="0 0 1440 700" style="enable-background:new 0 0 1440 700;" xml:space="preserve">
<style type="text/css">
	.st0{fill:none;}
	.st1{fill:#EFF0F0;}
	.st2{fill:#E6E8E8;}
</style>
<g>
	<path class="st0" d="M838.34-2.59c-0.44,0.01-0.99,0.01-1.8-0.02c-4.42-0.16-8.85-0.3-13.27,0.03c-1.57,0.12-2.61,0.17-3.38,0.19
		c-0.49,0.11-0.94,0.21-1.56,0.34c-3.03,0.64-6.06,1.3-9.06,2.04h37.79c-1.53-0.55-3.09-1.1-3.83-1.28
		C840.75-1.88,839.25-2.3,838.34-2.59z"/>
	<path class="st0" d="M1313.99-1.49c-3.02,0.03-6.04,0.13-9.06,0.32c-0.91,0.24-3.75,0.75-6.08,1.17h25.94
		c-1.17-0.31-2.35-0.61-3.53-0.9C1319.13-1.08,1315.24-1.5,1313.99-1.49z"/>
	<path class="st0" d="M357.36-0.77c-2.15-0.71-4.31-1.37-6.53-1.84c-1.11-0.24-1.87-0.42-2.49-0.59c-0.05,0-0.07,0-0.11,0
		c-4.38-0.2-8.78-0.39-13.17-0.1c-1.78,0.12-2.96,0.17-3.72,0.17c-0.37,0.08-0.67,0.15-1.11,0.24c-3.88,0.81-7.73,1.78-11.55,2.89
		h39.69C356.77-0.76,355.83-1.24,357.36-0.77z"/>
	<path class="st1" d="M803.59,1.56c-18.83,5.8-37.09,15.17-57.05,29.34c-26.24,18.62-49.58,41.95-70.38,66.42
		c-4.74,5.57-9.5,11.13-14.03,16.88c-0.32,0.43-0.7,0.96-1.17,1.6c-4.74,6.46-9.38,12.99-13.82,19.67
		c-46.16,69.51-73.8,132.91-97.46,208.23c-12.6,40.12-23.09,81.05-29.61,122.64c-0.25,1.58-2.01,14.77-1.96,13.77
		c-0.42,3.59-0.86,7.19-1.21,10.79c-0.9,9.33-1.69,18.68-2.11,28.05c-0.27,5.89-0.42,11.8-0.52,17.71
		c125.24-92.95,232.69-212.04,309.55-352.74c24.77-45.36,49.6-94.96,47.06-141.23c-0.09-2.36-0.3-4.72-0.5-7.07
		c-0.13-0.72-0.29-1.6-0.5-2.79c-0.99-4.3-1.97-8.62-3.45-12.78c-0.24-0.69-0.43-1.23-0.59-1.73c-0.22-0.38-0.42-0.72-0.69-1.21
		c-1.19-2.15-2.44-4.28-3.74-6.37c-1.25-1.42-3.51-4.12-4.43-4.97c-0.63-0.58-1.11-1.04-1.51-1.43c-1.89-1.17-3.8-2.3-5.75-3.38
		c-0.72-0.25-1.68-0.6-2.65-0.95h-37.79C807.37,0.47,805.47,0.98,803.59,1.56z"/>
	<path class="st1" d="M954.74,149.72c-44.6,112.45-117.35,216.85-198.07,306.36c-65.61,72.77-140.24,137.41-221.16,192.67
		c2.19,3.85,4.43,7.69,6.95,11.33c0.52,0.75,1.59,2.11,2.57,3.34c3.82,4.4,7.78,8.68,12.18,12.51c1.05,0.91,3.61,2.8,4.98,3.81
		c1.43,0.96,2.87,1.89,4.35,2.76c3.2,1.88,19.03,8.77,14.22,7.27c7.56,2.65,15.26,4.9,23.14,6.39c1.76,0.33,10.78,1.42,7.88,1.2
		c2.85,0.26,5.69,0.49,8.54,0.61c10.13,0.41,20.29,0.45,30.41-0.12c5.35-0.3,10.7-0.6,16.03-1.12c0,0,13.12-1.64,10.34-1.12
		c44.28-6.99,92.78-21.37,130.06-37.93c32.95-14.64,64.93-31.37,95.94-49.8c-8.85-55.77-3.61-114.72,5.3-169.09
		c14.05-85.82,42.02-169.11,78.35-247.98C1018.5,121.89,1058.88,54.5,1112.45,0H967.08C979.97,47.11,973.71,101.89,954.74,149.72z"
		/>
	<path class="st1" d="M1295.64,0.62c-45.24,11.89-90.34,50.07-125.13,89.81c-6.82,7.8-13.63,15.63-20.05,23.77
		c-0.31,0.44-0.69,0.96-1.16,1.6c-4.74,6.46-9.38,12.99-13.82,19.67c-9.6,14.46-18.7,29.25-27.15,44.42
		c-9.92,17.82-19.3,35.95-27.93,54.43c-4.16,8.91-8.24,17.84-12.13,26.87c-0.57,1.33-0.97,2.26-1.31,3.03
		c-0.31,0.77-0.68,1.7-1.21,3c-1.9,4.67-3.79,9.34-5.62,14.03c-15.4,39.61-28.71,80.13-38.74,121.45
		c-5.11,21.05-9.64,42.27-13,63.68c-0.56,3.56-1.08,7.12-1.6,10.69c-0.18,1.79-0.99,8.37-1.07,9.14
		c-0.98,9.37-1.85,18.76-2.36,28.16c-0.47,8.74-0.75,17.51-0.82,26.27c25.21-19.2,49.62-39.42,73.16-60.51
		c78.24-70.13,149.79-147.22,205.38-234.56c24.44-38.4,47.98-78.97,61.06-122.83c8.01-26.87,12.31-44.86,11.13-70.79
		c-0.04-0.88-1.63-15.46-0.3-8.38c-0.69-4.04-1.41-8.09-2.51-12.04c-0.82-2.96-1.69-5.91-2.66-8.83c-0.83-1.67-2.74-5.9-3.34-6.89
		c-1.04-1.81-2.19-3.55-3.34-5.28c-0.09-0.11-0.15-0.17-0.24-0.29c-1.49-1.55-3-3.08-4.55-4.56c-1.49-0.92-4.78-3.17-5.97-3.78
		c-0.51-0.26-0.88-0.46-1.26-0.67c-0.21-0.06-0.35-0.09-0.57-0.16c-1.24-0.37-2.48-0.72-3.73-1.05h-25.94
		C1297.32,0.28,1296.02,0.52,1295.64,0.62z"/>
	<path class="st1" d="M0,0v231.12C29.96,145.72,73.2,64.3,135.34,0H0z"/>
	<path class="st1" d="M1226.37,478.83c-61.03,63.43-128.18,122.43-200.66,173.1c1.98,3.38,4.1,6.67,6.34,9.89
		c1.14,0.92,8.82,9.89,10.93,11.82c1.78,1.63,9.02,7.03,7.94,6.41c1.3,0.87,2.61,1.72,3.96,2.51c3.31,1.94,20.05,9.2,13.58,7.04
		c6.47,2.29,13.04,4.32,19.76,5.74c2.55,0.54,5.11,1.05,7.67,1.52c2,0.19,7.1,0.79,8.24,0.86c17.91,1.06,35.91,0.54,53.77-1.27
		c3.16-0.32,6.32-0.68,9.48-1.05c2.32-0.33,5.66-0.79,6.54-0.93c8.91-1.45,17.8-3.01,26.63-4.86
		c86.04-17.99,164.82-49.07,239.46-84.89V156.13c-8.57,26.7-19.65,52.39-31.49,75.76C1362.31,322.98,1296.96,405.46,1226.37,478.83z
		"/>
	<path class="st1" d="M82.46,658.09C81.72,657.11,81.89,657.34,82.46,658.09L82.46,658.09z"/>
	<path class="st1" d="M205.39,77.55c-8.1,8.68-16.12,17.44-23.67,26.6c0.32-0.39-8.41,10.78-7.95,9.96
		c-2.2,3.02-4.36,6.06-6.44,9.15c-7.7,11.45-14.94,23.21-21.62,35.28c-7.99,14.44-15.48,29.15-22.36,44.15
		c-1.24,2.71-7.34,16.72-7.53,16.93c-2.71,6.57-5.41,13.16-7.95,19.8C94.89,273.35,83.7,307.99,74.73,343.2
		c-4.76,18.69-9.09,37.49-12.67,56.44c-1.64,8.69-3.21,17.4-4.58,26.14c-0.55,3.52-1.08,7.04-1.59,10.55
		c-0.31,2.27-0.7,5.21-0.8,6.02c-2.63,22.59-4.42,45.35-4.78,68.12c35.94-24.92,70.2-52.2,101.86-82.19
		c42.37-40.13,81.71-83.77,115.22-131.62c36.29-51.82,73.42-108.91,95.65-168.45c9.48-25.39,16.87-49.84,17.35-71.92
		c0.11-5.22,0.24-10.46-0.12-15.68c-0.16-2.24-0.21-3.61-0.2-4.44c-0.08-0.36-0.14-0.65-0.23-1.07c-0.92-4.43-1.82-8.89-3.23-13.21
		c-0.5-1.53-3.14-7.07-3.4-7.84c-0.99-1.8-2.08-3.53-3.19-5.26c-1.25-1.27-3.92-4.28-4.88-5.13c-0.28-0.25-0.45-0.41-0.68-0.62
		c-0.29-0.17-0.54-0.3-0.9-0.51c-1.04-0.61-3.48-1.73-5.18-2.53h-39.69C276.4,12.26,238.23,42.38,205.39,77.55z"/>
	<path class="st1" d="M395.33,290.29C312.35,426.37,199.04,540,65.49,624.01c0.34,0.99,0.64,1.98,0.99,2.97
		c0.63,1.72,2.82,6.84,3.6,8.74c0.54,1.14,1.04,2.3,1.62,3.42c2.94,5.71,6.02,11.36,9.56,16.72c1.31,1.98,2.67,3.94,4.04,5.88
		c0.35,0.44,0.68,0.83,0.94,1.12c4.08,4.6,8.31,9.09,12.96,13.13c0.74,0.64,1.33,1.17,1.83,1.61c2.47,1.69,4.95,3.38,7.53,4.89
		c2.86,1.68,14.55,6.89,13.16,6.66c4.39,1.56,8.81,3.01,13.34,4.09c3.38,0.81,6.76,1.62,10.19,2.21c0.52,0.09,0.9,0.16,1.3,0.23
		c15.82,1.41,31.75,1.17,47.53-0.62c2.1-0.37,7.46-1.19,8.43-1.37c4.72-0.9,9.45-1.81,14.13-2.9c10.04-2.33,19.97-5,29.84-7.94
		c4.75-1.47,9.45-3.15,14.12-4.85c5.3-1.92,10.57-3.91,15.82-5.97c3.28-1.29,14.28-5.88,16.8-6.88
		c41.54-18.08,81.95-38.86,120.93-61.95c-4.83-34.43-4.74-69.74-1.82-102.89c7.59-86.29,29.15-171.01,61.33-251.35
		c29.99-74.89,65.84-148.34,117.42-210.94C601.63,25.21,612.85,12.4,624.72,0H477.79C504.15,98.93,445.54,207.97,395.33,290.29z"/>
	<path class="st2" d="M1440,700v-95.29c-74.63,35.82-153.42,66.9-239.46,84.89c-8.84,1.85-17.72,3.42-26.63,4.86
		c-0.89,0.14-4.22,0.6-6.54,0.93c-3.16,0.37-6.32,0.73-9.48,1.05c-17.86,1.81-35.86,2.33-53.77,1.27c-1.14-0.06-6.24-0.66-8.24-0.86
		c-2.56-0.47-5.12-0.98-7.67-1.52c-6.72-1.42-13.29-3.45-19.76-5.74c6.47,2.16-10.27-5.09-13.58-7.04
		c-1.34-0.79-2.66-1.64-3.96-2.51c1.08,0.61-6.17-4.79-7.94-6.41c-2.1-1.93-9.79-10.9-10.93-11.82c-2.23-3.22-4.35-6.51-6.34-9.89
		c72.48-50.67,139.62-109.67,200.66-173.1c70.59-73.36,135.94-155.84,182.14-246.94c11.85-23.36,22.93-49.06,31.49-75.76V0h-115.2
		c1.25,0.33,2.49,0.68,3.73,1.05c0.23,0.07,0.36,0.1,0.57,0.16c0.38,0.21,0.75,0.41,1.26,0.67c1.19,0.61,4.48,2.86,5.97,3.78
		c1.55,1.48,3.06,3.01,4.55,4.56c0.09,0.11,0.16,0.18,0.24,0.29c1.16,1.73,2.3,3.47,3.34,5.28c0.6,0.99,2.51,5.23,3.34,6.89
		c0.97,2.92,1.84,5.87,2.66,8.83c1.1,3.95,1.81,8,2.51,12.04c-1.33-7.08,0.27,7.5,0.3,8.38c1.18,25.93-3.12,43.92-11.13,70.79
		c-13.08,43.87-36.62,84.44-61.06,122.83c-55.59,87.33-127.14,164.43-205.38,234.56c-23.54,21.09-47.95,41.31-73.16,60.51
		c0.07-8.76,0.35-17.53,0.82-26.27c0.51-9.41,1.39-18.79,2.36-28.16c0.08-0.77,0.89-7.35,1.07-9.14c0.52-3.56,1.04-7.13,1.6-10.69
		c3.36-21.41,7.89-42.63,13-63.68c10.03-41.32,23.33-81.83,38.74-121.45c1.82-4.69,3.72-9.36,5.62-14.03c0.53-1.3,0.9-2.22,1.21-3
		c0.34-0.77,0.74-1.7,1.31-3.03c3.89-9.03,7.97-17.97,12.13-26.87c8.63-18.49,18.01-36.62,27.93-54.43
		c8.45-15.16,17.54-29.96,27.15-44.42c4.43-6.68,9.08-13.2,13.82-19.67c0.47-0.64,0.85-1.16,1.16-1.6
		c6.42-8.14,13.22-15.97,20.05-23.77c34.78-39.74,79.89-77.92,125.13-89.81c0.37-0.1,1.68-0.34,3.21-0.62h-186.4
		c-53.58,54.5-93.95,121.89-125.7,190.81c-36.33,78.87-64.29,162.17-78.35,247.98c-8.91,54.37-14.15,113.32-5.3,169.09
		c-31,18.42-62.98,35.16-95.94,49.8c-37.28,16.56-85.79,30.94-130.06,37.93c2.78-0.52-10.35,1.12-10.34,1.12
		c-5.33,0.52-10.68,0.82-16.03,1.12c-10.13,0.57-20.28,0.52-30.41,0.12c-2.85-0.12-5.7-0.35-8.54-0.61c2.89,0.22-6.12-0.87-7.88-1.2
		c-7.88-1.49-15.58-3.74-23.14-6.39c4.81,1.51-11.02-5.38-14.22-7.27c-1.48-0.87-2.92-1.81-4.35-2.76c-1.37-1.01-3.93-2.9-4.98-3.81
		c-4.4-3.83-8.35-8.11-12.18-12.51c-0.98-1.23-2.05-2.59-2.57-3.34c-2.52-3.64-4.76-7.48-6.95-11.33
		c80.92-55.27,155.55-119.9,221.16-192.67c80.71-89.51,153.47-193.92,198.07-306.36C973.71,101.89,979.97,47.11,967.08,0H847.07
		c0.97,0.35,1.93,0.7,2.65,0.95c1.95,1.08,3.86,2.21,5.75,3.38c0.39,0.39,0.88,0.85,1.51,1.43c0.92,0.84,3.19,3.54,4.43,4.97
		c1.3,2.09,2.55,4.22,3.74,6.37c0.27,0.49,0.47,0.83,0.69,1.21c0.17,0.5,0.35,1.05,0.59,1.73c1.48,4.16,2.46,8.49,3.45,12.78
		c0.21,1.19,0.37,2.07,0.5,2.79c0.2,2.35,0.41,4.71,0.5,7.07c2.54,46.27-22.29,95.87-47.06,141.23
		c-76.86,140.7-184.31,259.79-309.55,352.74c0.09-5.91,0.25-11.82,0.52-17.71c0.42-9.37,1.22-18.72,2.11-28.05
		c0.35-3.6,0.78-7.2,1.21-10.79c-0.05,0.99,1.71-12.19,1.96-13.77c6.52-41.58,17.01-82.51,29.61-122.64
		c23.66-75.32,51.3-138.72,97.46-208.23c4.43-6.67,9.08-13.2,13.82-19.67c0.47-0.64,0.85-1.16,1.17-1.6
		c4.53-5.74,9.29-11.3,14.03-16.88c20.8-24.47,44.14-47.8,70.38-66.42c19.96-14.17,38.22-23.54,57.05-29.34
		c1.88-0.58,3.78-1.08,5.69-1.56H624.72c-11.87,12.4-23.09,25.21-33.65,38.02c-51.59,62.59-87.44,136.05-117.42,210.94
		c-32.17,80.35-53.73,165.06-61.33,251.35c-2.91,33.15-3,68.46,1.82,102.89c-38.98,23.09-79.38,43.87-120.93,61.95
		c-2.52,1.01-13.52,5.6-16.8,6.88c-5.24,2.06-10.52,4.04-15.82,5.97c-4.67,1.7-9.37,3.38-14.12,4.85
		c-9.88,2.94-19.81,5.6-29.84,7.94c-4.68,1.09-9.41,1.99-14.13,2.9c-0.96,0.18-6.32,1-8.43,1.37c-15.78,1.79-31.71,2.03-47.53,0.62
		c-0.4-0.07-0.77-0.14-1.3-0.23c-3.43-0.59-6.81-1.4-10.19-2.21c-4.53-1.09-8.96-2.54-13.34-4.09c1.39,0.23-10.3-4.98-13.16-6.66
		c-2.58-1.52-5.06-3.21-7.53-4.89c-0.5-0.45-1.09-0.97-1.83-1.61c-4.65-4.03-8.88-8.53-12.96-13.13c-0.26-0.29-0.59-0.69-0.94-1.12
		c-1.37-1.94-2.73-3.89-4.04-5.88c-3.54-5.36-6.62-11.01-9.56-16.72c-0.58-1.12-1.08-2.28-1.62-3.42c-0.77-1.9-2.97-7.02-3.6-8.74
		c-0.36-0.98-0.65-1.98-0.99-2.97C199.04,540,312.35,426.37,395.33,290.29C445.54,207.97,504.15,98.93,477.79,0H358.37
		c1.7,0.8,4.14,1.92,5.18,2.53c0.36,0.21,0.6,0.35,0.9,0.51c0.23,0.21,0.41,0.38,0.68,0.62c0.96,0.85,3.63,3.86,4.88,5.13
		c1.11,1.73,2.2,3.46,3.19,5.26c0.27,0.78,2.9,6.31,3.4,7.84c1.41,4.31,2.32,8.77,3.23,13.21c0.09,0.42,0.15,0.71,0.23,1.07
		c0,0.83,0.05,2.19,0.2,4.44c0.36,5.22,0.23,10.46,0.12,15.68c-0.48,22.08-7.87,46.54-17.35,71.92
		c-22.23,59.54-59.36,116.63-95.65,168.45c-33.51,47.85-72.85,91.49-115.22,131.62c-31.66,29.99-65.92,57.27-101.86,82.19
		c0.36-22.77,2.15-45.54,4.78-68.12c0.1-0.81,0.49-3.74,0.8-6.02c0.51-3.52,1.04-7.04,1.59-10.55c1.37-8.74,2.94-17.45,4.58-26.14
		c3.58-18.95,7.91-37.76,12.67-56.44c8.97-35.21,20.16-69.85,33.13-103.79c2.54-6.64,5.24-13.23,7.95-19.8
		c0.19-0.2,6.29-14.22,7.53-16.93c6.88-15,14.37-29.71,22.36-44.15c6.68-12.07,13.92-23.83,21.62-35.28
		c2.08-3.09,4.25-6.13,6.44-9.15c-0.46,0.83,8.27-10.35,7.95-9.96c7.55-9.16,15.57-17.92,23.67-26.6
		C238.23,42.38,276.4,12.26,318.69,0H135.34C73.2,64.3,29.96,145.72,0,231.12V700H1440z M82.46,658.09
		C81.89,657.34,81.72,657.11,82.46,658.09L82.46,658.09z"/>
</g>
<path class="st0" d="M838.34-2.59c-0.44,0.01-0.99,0.01-1.8-0.02c-4.42-0.16-8.85-0.3-13.27,0.03c-1.57,0.12-2.61,0.17-3.38,0.19
	c-0.49,0.11-0.94,0.21-1.56,0.34c-3.03,0.64-6.06,1.3-9.06,2.04h37.79c-1.53-0.55-3.09-1.1-3.83-1.28
	C840.75-1.88,839.25-2.3,838.34-2.59z"/>
<path class="st0" d="M1313.99-1.49c-3.02,0.03-6.04,0.13-9.06,0.32c-0.91,0.24-3.75,0.75-6.08,1.17h25.94
	c-1.17-0.31-2.35-0.61-3.53-0.9C1319.13-1.08,1315.24-1.5,1313.99-1.49z"/>
<path class="st0" d="M357.36-0.77c-2.15-0.71-4.31-1.37-6.53-1.84c-1.11-0.24-1.87-0.42-2.49-0.59c-0.05,0-0.07,0-0.11,0
	c-4.38-0.2-8.78-0.39-13.17-0.1c-1.78,0.12-2.96,0.17-3.72,0.17c-0.37,0.08-0.67,0.15-1.11,0.24c-3.88,0.81-7.73,1.78-11.55,2.89
	h39.69C356.77-0.76,355.83-1.24,357.36-0.77z"/>
<path class="st1" d="M82.46,658.09C81.72,657.11,81.89,657.34,82.46,658.09L82.46,658.09z"/>
<path class="st2" d="M1440,700v-95.29c-74.63,35.82-153.42,66.9-239.46,84.89c-8.84,1.85-17.72,3.42-26.63,4.86
	c-0.89,0.14-4.22,0.6-6.54,0.93c-3.16,0.37-6.32,0.73-9.48,1.05c-17.86,1.81-35.86,2.33-53.77,1.27c-1.14-0.06-6.24-0.66-8.24-0.86
	c-2.56-0.47-5.12-0.98-7.67-1.52c-6.72-1.42-13.29-3.45-19.76-5.74c6.47,2.16-10.27-5.09-13.58-7.04c-1.34-0.79-2.66-1.64-3.96-2.51
	c1.08,0.61-6.17-4.79-7.94-6.41c-2.1-1.93-9.79-10.9-10.93-11.82c-2.23-3.22-4.35-6.51-6.34-9.89
	c72.48-50.67,139.62-109.67,200.66-173.1c70.59-73.36,135.94-155.84,182.14-246.94c11.85-23.36,22.93-49.06,31.49-75.76V0h-115.2
	c1.25,0.33,2.49,0.68,3.73,1.05c0.23,0.07,0.36,0.1,0.57,0.16c0.38,0.21,0.75,0.41,1.26,0.67c1.19,0.61,4.48,2.86,5.97,3.78
	c1.55,1.48,3.06,3.01,4.55,4.56c0.09,0.11,0.16,0.18,0.24,0.29c1.16,1.73,2.3,3.47,3.34,5.28c0.6,0.99,2.51,5.23,3.34,6.89
	c0.97,2.92,1.84,5.87,2.66,8.83c1.1,3.95,1.81,8,2.51,12.04c-1.33-7.08,0.27,7.5,0.3,8.38c1.18,25.93-3.12,43.92-11.13,70.79
	c-13.08,43.87-36.62,84.44-61.06,122.83c-55.59,87.33-127.14,164.43-205.38,234.56c-23.54,21.09-47.95,41.31-73.16,60.51
	c0.07-8.76,0.35-17.53,0.82-26.27c0.51-9.41,1.39-18.79,2.36-28.16c0.08-0.77,0.89-7.35,1.07-9.14c0.52-3.56,1.04-7.13,1.6-10.69
	c3.36-21.41,7.89-42.63,13-63.68c10.03-41.32,23.33-81.83,38.74-121.45c1.82-4.69,3.72-9.36,5.62-14.03c0.53-1.3,0.9-2.22,1.21-3
	c0.34-0.77,0.74-1.7,1.31-3.03c3.89-9.03,7.97-17.97,12.13-26.87c8.63-18.49,18.01-36.62,27.93-54.43
	c8.45-15.16,17.54-29.96,27.15-44.42c4.43-6.68,9.08-13.2,13.82-19.67c0.47-0.64,0.85-1.16,1.16-1.6
	c6.42-8.14,13.22-15.97,20.05-23.77c34.78-39.74,79.89-77.92,125.13-89.81c0.37-0.1,1.68-0.34,3.21-0.62h-186.4
	c-53.58,54.5-93.95,121.89-125.7,190.81c-36.33,78.87-64.29,162.17-78.35,247.98c-8.91,54.37-14.15,113.32-5.3,169.09
	c-31,18.42-62.98,35.16-95.94,49.8c-37.28,16.56-85.79,30.94-130.06,37.93c2.78-0.52-10.35,1.12-10.34,1.12
	c-5.33,0.52-10.68,0.82-16.03,1.12c-10.13,0.57-20.28,0.52-30.41,0.12c-2.85-0.12-5.7-0.35-8.54-0.61c2.89,0.22-6.12-0.87-7.88-1.2
	c-7.88-1.49-15.58-3.74-23.14-6.39c4.81,1.51-11.02-5.38-14.22-7.27c-1.48-0.87-2.92-1.81-4.35-2.76c-1.37-1.01-3.93-2.9-4.98-3.81
	c-4.4-3.83-8.35-8.11-12.18-12.51c-0.98-1.23-2.05-2.59-2.57-3.34c-2.52-3.64-4.76-7.48-6.95-11.33
	c80.92-55.27,155.55-119.9,221.16-192.67c80.71-89.51,153.47-193.92,198.07-306.36C973.71,101.89,979.97,47.11,967.08,0H847.07
	c0.97,0.35,1.93,0.7,2.65,0.95c1.95,1.08,3.86,2.21,5.75,3.38c0.39,0.39,0.88,0.85,1.51,1.43c0.92,0.84,3.19,3.54,4.43,4.97
	c1.3,2.09,2.55,4.22,3.74,6.37c0.27,0.49,0.47,0.83,0.69,1.21c0.17,0.5,0.35,1.05,0.59,1.73c1.48,4.16,2.46,8.49,3.45,12.78
	c0.21,1.19,0.37,2.07,0.5,2.79c0.2,2.35,0.41,4.71,0.5,7.07c2.54,46.27-22.29,95.87-47.06,141.23
	c-76.86,140.7-184.31,259.79-309.55,352.74c0.09-5.91,0.25-11.82,0.52-17.71c0.42-9.37,1.22-18.72,2.11-28.05
	c0.35-3.6,0.78-7.2,1.21-10.79c-0.05,0.99,1.71-12.19,1.96-13.77c6.52-41.58,17.01-82.51,29.61-122.64
	c23.66-75.32,51.3-138.72,97.46-208.23c4.43-6.67,9.08-13.2,13.82-19.67c0.47-0.64,0.85-1.16,1.17-1.6
	c4.53-5.74,9.29-11.3,14.03-16.88c20.8-24.47,44.14-47.8,70.38-66.42c19.96-14.17,38.22-23.54,57.05-29.34
	c1.88-0.58,3.78-1.08,5.69-1.56H624.72c-11.87,12.4-23.09,25.21-33.65,38.02c-51.59,62.59-87.44,136.05-117.42,210.94
	c-32.17,80.35-53.73,165.06-61.33,251.35c-2.91,33.15-3,68.46,1.82,102.89c-38.98,23.09-79.38,43.87-120.93,61.95
	c-2.52,1.01-13.52,5.6-16.8,6.88c-5.24,2.06-10.52,4.04-15.82,5.97c-4.67,1.7-9.37,3.38-14.12,4.85c-9.88,2.94-19.81,5.6-29.84,7.94
	c-4.68,1.09-9.41,1.99-14.13,2.9c-0.96,0.18-6.32,1-8.43,1.37c-15.78,1.79-31.71,2.03-47.53,0.62c-0.4-0.07-0.77-0.14-1.3-0.23
	c-3.43-0.59-6.81-1.4-10.19-2.21c-4.53-1.09-8.96-2.54-13.34-4.09c1.39,0.23-10.3-4.98-13.16-6.66c-2.58-1.52-5.06-3.21-7.53-4.89
	c-0.5-0.45-1.09-0.97-1.83-1.61c-4.65-4.03-8.88-8.53-12.96-13.13c-0.26-0.29-0.59-0.69-0.94-1.12c-1.37-1.94-2.73-3.89-4.04-5.88
	c-3.54-5.36-6.62-11.01-9.56-16.72c-0.58-1.12-1.08-2.28-1.62-3.42c-0.77-1.9-2.97-7.02-3.6-8.74c-0.36-0.98-0.65-1.98-0.99-2.97
	C199.04,540,312.35,426.37,395.33,290.29C445.54,207.97,504.15,98.93,477.79,0H358.37c1.7,0.8,4.14,1.92,5.18,2.53
	c0.36,0.21,0.6,0.35,0.9,0.51c0.23,0.21,0.41,0.38,0.68,0.62c0.96,0.85,3.63,3.86,4.88,5.13c1.11,1.73,2.2,3.46,3.19,5.26
	c0.27,0.78,2.9,6.31,3.4,7.84c1.41,4.31,2.32,8.77,3.23,13.21c0.09,0.42,0.15,0.71,0.23,1.07c0,0.83,0.05,2.19,0.2,4.44
	c0.36,5.22,0.23,10.46,0.12,15.68c-0.48,22.08-7.87,46.54-17.35,71.92c-22.23,59.54-59.36,116.63-95.65,168.45
	c-33.51,47.85-72.85,91.49-115.22,131.62c-31.66,29.99-65.92,57.27-101.86,82.19c0.36-22.77,2.15-45.54,4.78-68.12
	c0.1-0.81,0.49-3.74,0.8-6.02c0.51-3.52,1.04-7.04,1.59-10.55c1.37-8.74,2.94-17.45,4.58-26.14c3.58-18.95,7.91-37.76,12.67-56.44
	c8.97-35.21,20.16-69.85,33.13-103.79c2.54-6.64,5.24-13.23,7.95-19.8c0.19-0.2,6.29-14.22,7.53-16.93
	c6.88-15,14.37-29.71,22.36-44.15c6.68-12.07,13.92-23.83,21.62-35.28c2.08-3.09,4.25-6.13,6.44-9.15
	c-0.46,0.83,8.27-10.35,7.95-9.96c7.55-9.16,15.57-17.92,23.67-26.6C238.23,42.38,276.4,12.26,318.69,0H135.34
	C73.2,64.3,29.96,145.72,0,231.12V700H1440z M82.46,658.09C81.89,657.34,81.72,657.11,82.46,658.09L82.46,658.09z"/>
</svg>
