<?xml version="1.0" encoding="utf-8"?>
<!-- Generator: Adobe Illustrator 25.2.1, SVG Export Plug-In . SVG Version: 6.00 Build 0)  -->
<svg version="1.1" id="Calque_1" xmlns="http://www.w3.org/2000/svg" xmlns:xlink="http://www.w3.org/1999/xlink" x="0px" y="0px"
	 viewBox="0 0 222.1 168.6" style="enable-background:new 0 0 222.1 168.6;" xml:space="preserve">
<style type="text/css">
	.st0{fill:#E3252E;}
	.st1{fill:#120C17;}
	.st2{fill:#F9D51B;}
</style>
<g>
	<g>
		<g>
			<path class="st0" d="M196.8,0h-48.7H74H25.3C12.1,0,1.2,10.2,0,23v122.5c1.2,12.9,12.1,23,25.3,23H74h74h48.7
				c13.1,0,24-10.1,25.3-22.9V22.9C220.9,10.1,210,0,196.8,0z"/>
			<path class="st1" d="M196.8,0h-48.7h-74H25.3C12.1,0,1.2,10.2,0,23v31.2h222.1V22.9C220.9,10.1,210,0,196.8,0z"/>
			<path class="st2" d="M0,114.4v31.2c1.2,12.9,12.1,23,25.3,23h48.7h74h48.7c13.1,0,24-10.1,25.3-22.9v-31.3H0z"/>
		</g>
	</g>
</g>
</svg>
