<?xml version="1.0" encoding="utf-8"?>
<!-- Generator: Adobe Illustrator 25.2.1, SVG Export Plug-In . SVG Version: 6.00 Build 0)  -->
<svg version="1.1" id="Calque_1" xmlns="http://www.w3.org/2000/svg" xmlns:xlink="http://www.w3.org/1999/xlink" x="0px" y="0px"
	 viewBox="0 0 283 89.9" style="enable-background:new 0 0 283 89.9;" xml:space="preserve">
<style type="text/css">
	.st0{fill:#D64758;}
	.st1{fill:#92DBE7;}
</style>
<g id="IHEUg8.tif_1_">
	<g>
		<path class="st1" d="M97.1,12.5c-5,1.5-10,2.9-15,4.6c-8,2.7-16,5.5-23.8,8.5c-12,4.7-23.9,9.7-35.9,14.5
			c-6.1,2.4-12.3,4.7-18,6.8c-0.6,0.2-1.2,0.3-1.7,0.1h0c-2.7-0.6-3.5-4.1-1.2-5.7c1.1-0.8,2.1-1.6,3-2.5c3.6-3.6,8.1-5.7,12.7-7.5
			c11.8-4.9,23.6-9.6,35.5-14C62.8,13.8,73,10.3,83.3,7.2c10.7-3.3,21.7-6,32.9-7.1c3.4-0.3,7.2,0.6,10.4,2.6c1.2,3-0.1,5.4-2.2,7.1
			c-4.6,3.7-9.2,7.6-14.3,10.6c-9.7,5.7-19.7,10.9-29.5,16.3c-1.6,0.9-3.1,1.9-4.5,3.2c5-0.9,9.6-3,14.3-4.7c8.2-3,16.5-6,24.7-9
			c6.5-2.4,13-4.8,19.6-7c6.3-2.1,12.7-4.1,19.1-6.1c5.8-1.8,11.6-3.5,17.5-5.1c4.1-1.1,8.2-2.4,12.4-3c2.5-0.4,5.1,0.3,8,0.5
			l0.3,5.1c-4.2,6-10.2,9.4-15.9,13c-9.5,6-19.1,12-29.2,16.9C136,45.7,125.9,52,115.1,56.9c-0.1,0.1-0.2,0.3-0.6,0.9
			c1.1-0.1,1.9,0,2.6-0.3c7.8-3.2,15.5-6.5,23.4-9.6c12.8-5,25.6-9.9,38.4-14.7c5.7-2.2,11.5-4.3,17.2-6.3c4.2-1.5,8.5-2.8,12.8-3.9
			c1.7-0.4,3.5-0.2,5.3-0.3c0.3,3.8-2.2,5.2-4.3,6.6c-5.7,3.9-11.5,7.8-17.5,11.2c-19.8,11.4-39.6,22.6-59.5,33.8
			c-1.8,1-3.6,1.9-5.1,3.8c5.5-1.5,11.1-2.7,16.6-4.5c13.7-4.4,27.3-9.2,40.9-13.7c6.1-2,12.3-3.8,18.4-5.7
			c6.6-2.1,13.2-4.2,19.8-6.4c17.4-5.8,34.8-11.7,52.2-17.6c2.1-0.7,4.3-1.2,7-1.9c-0.6,2.5-2.3,2.7-3.5,3.1
			c-15.8,5.5-31.6,10.8-47.3,16.4c-8.4,3-16.6,6.5-25,9.7c-11.1,4.3-22.2,8.7-33.4,12.8c-11.2,4.1-22.4,7.9-33.7,11.5
			c-8.8,2.8-17.8,5.1-26.7,7.5c-2.3,0.6-4.9,0.6-7,0.9c-2-3.2-2.1-4.7,0-6.8c2.2-2.2,4.6-4.3,7.2-6c10.6-6.8,21-13.8,32.2-19.6
			c11.4-6,22.6-12.4,33.9-18.7c0.5-0.3,0.9-0.6,1-1.7c-4.2,1.8-8.4,3.6-12.5,5.5c-12.9,5.6-25.7,11.4-38.7,16.7
			c-19.9,8.2-39.9,16.1-59.8,24.1c-3.1,1.2-6.1,2.6-9.2,3.6c-3.7,1.2-4.8,0.5-7-3.5c1.5-3.9,4.5-6.8,8.1-8.8
			c11.9-6.9,23.8-13.6,35.7-20.4c6.9-3.9,13.7-7.9,20.7-11.8c4-2.3,8.2-4.3,12.2-6.5c9.9-5.3,19.9-10.5,29.6-16.6
			c-2,0.5-4.1,0.9-6.1,1.6c-10.7,4-21.4,8-32,12.2c-9.7,3.8-19.2,8.1-28.9,11.9C82.5,49.5,72,53.5,61.5,57.5
			C51.1,61.4,40.7,65.2,30.3,69c-7.6,2.8-15.2,5.6-22.8,8.3c-0.4,0.2-0.9,0.3-1.3,0.3c-2,0.3-4-0.6-5.2-2.2l0,0
			c-1.2-1.7-1.3-3.9-0.3-5.7c1.9-3.4,4.8-5.8,7.9-7.7c7-4.3,14.1-8.5,21.3-12.6C40.5,43.5,51.1,37.7,61.7,32
			c8.6-4.6,17.3-9,25.9-13.6c3.3-1.7,6.5-3.5,9.8-5.2C97.2,12.8,97.3,13,97.1,12.5z"/>
	</g>
</g>
</svg>
